<?xml version="1.0" encoding="UTF-8"?>
<svg id="_레이어_2" data-name="레이어 2" xmlns="http://www.w3.org/2000/svg" viewBox="0 0 400 400">
  <defs>
    <style>
      .cls-1 {
        fill: #221e1f;
      }

      .cls-2 {
        fill: #fff;
      }
    </style>
  </defs>
  <g id="Layer_1" data-name="Layer 1">
    <circle class="cls-2" cx="200" cy="200" r="200"/>
    <g>
      <path class="cls-1" d="M96.8,215.29c.27,60.22,91.8,60.18,92.06,0h-30.49c.29,20.17-31.38,20.16-31.08,0h0s0-70.01,0-70.01c-.3-20.16,31.38-20.17,31.08,0h30.49c-.28-60.21-91.8-60.19-92.06,0,0,0,0,70.01,0,70.01h0Z"/>
      <path class="cls-1" d="M280.23,361.37c138.01-66.49,130.19-271.7-12.52-327.51C104.85-32.39-47.09,156.68,52.28,301.58h172.71l21.9-63.34,21.9,63.34h33.59l-34.83-100.75,34.83-101.58h-33.59l-21.9,63.87-21.9-63.87h-33.59l34.83,101.58-25.52,73.81H66.51c-2.41-4.35-4.56-8.8-6.51-13.32h.04C.22,127,154.62-7.79,279.53,68.98c127.82,74.91,78.78,276.79-69.22,284.33v.08c-41.33,2.86-81.85-12.17-110.87-38.01l-17.35,19.7c50.33,46.85,135.94,58.99,198.13,26.29Z"/>
    </g>
  </g>
</svg>