<svg width="126" height="30" viewBox="0 0 126 30" fill="none" xmlns="http://www.w3.org/2000/svg">
<g clip-path="url(#clip0_6_485)">
<path d="M14.9909 29.9818C23.2701 29.9818 29.9818 23.2701 29.9818 14.9909C29.9818 6.71165 23.2701 0 14.9909 0C6.71165 0 0 6.71165 0 14.9909C0 23.2701 6.71165 29.9818 14.9909 29.9818Z" fill="#00B2FC"/>
<path d="M17.1442 16.0832L16.0867 17.1407L23.3727 24.4267L24.4302 23.3692L17.1442 16.0832Z" fill="white"/>
<path d="M6.62134 5.56042L5.5639 6.61786L12.8499 13.9039L13.9073 12.8464L6.62134 5.56042Z" fill="white"/>
<path d="M23.3646 5.57458L16.0837 12.8657L17.1419 13.9224L24.4228 6.63128L23.3646 5.57458Z" fill="white"/>
<path d="M12.8522 16.0974L5.57129 23.3885L6.62946 24.4452L13.9104 17.1541L12.8522 16.0974Z" fill="white"/>
<path d="M74.9179 7.71429H63.0456V10.2675H74.079C77.3982 10.2675 78.9483 11.0699 78.9483 12.8936C78.9483 14.7173 77.3982 15.5198 74.079 15.5198H63.0456V22.7234H66.0547V18.073H74.9179C79.2219 18.073 81.9027 16.1216 81.9027 12.9119C81.9027 9.70214 79.2219 7.75077 74.9179 7.75077V7.71429Z" fill="white"/>
<path d="M87.0274 7.71429H84.0182V22.7052H101.416V20.152H87.0274V7.71429Z" fill="white"/>
<path d="M110.462 20.1884V22.7052H125.945L115.878 8.51671C115.441 7.87841 114.766 7.51367 114.055 7.51367C113.343 7.51367 112.669 7.87841 112.231 8.51671L102.164 22.7052H105.757L114.073 10.9422L120.584 20.1702H110.498L110.462 20.1884Z" fill="white"/>
<path d="M61.2219 7.71429H57.1003L50.3708 13.2948L43.6231 7.71429H39.5198L48.31 14.9909L38.9909 22.7052H43.1307L50.3708 16.7052L57.6109 22.7052H61.7325L52.4316 14.9909L61.2219 7.71429Z" fill="white"/>
</g>
<defs>
<clipPath id="clip0_6_485">
<rect width="125.945" height="30" fill="white"/>
</clipPath>
</defs>
</svg>
