<?xml version="1.0" encoding="utf-8"?>
<!-- Generator: Adobe Illustrator 28.0.0, SVG Export Plug-In . SVG Version: 6.00 Build 0)  -->
<svg version="1.2" baseProfile="tiny" id="레이어_1"
	 xmlns="http://www.w3.org/2000/svg" xmlns:xlink="http://www.w3.org/1999/xlink" x="0px" y="0px" viewBox="0 0 1366 227.46"
	 overflow="visible" xml:space="preserve">
<g>
	<g>
		<g>
			<g>
				<circle fill="#00AAFF" cx="146.51" cy="118" r="100.4"/>
			</g>
			<g>
				<g>
					
						<rect x="176.71" y="118.71" transform="matrix(0.7071 -0.7071 0.7071 0.7071 -55.1099 173.3524)" fill="#FFFFFF" width="10.01" height="68.98"/>
				</g>
				<g>
					
						<rect x="106.29" y="48.3" transform="matrix(0.7071 -0.7071 0.7071 0.7071 -25.9419 102.94)" fill="#FFFFFF" width="10.01" height="68.98"/>
				</g>
				<g>
					
						<rect x="147.22" y="77.78" transform="matrix(0.7066 -0.7076 0.7076 0.7066 -5.263 152.8818)" fill="#FFFFFF" width="68.98" height="10.01"/>
				</g>
				<g>
					
						<rect x="76.81" y="148.2" transform="matrix(0.7066 -0.7076 0.7076 0.7066 -75.7561 123.7138)" fill="#FFFFFF" width="68.98" height="10.01"/>
				</g>
			</g>
		</g>
		<g>
			<path fill="#FFFFFF" d="M547.69,69.22h-79.53v17.05h73.85c22.27,0,32.64,5.42,32.64,17.54s-10.37,17.54-32.64,17.54h-73.85v48.25
				h20.16v-31.19h59.37c28.87,0,46.8-13.03,46.8-34.6C594.49,82.25,576.56,69.22,547.69,69.22z"/>
			<polygon fill="#FFFFFF" points="628.74,69.22 608.58,69.22 608.58,169.61 725.05,169.61 725.05,152.56 628.74,152.56 			"/>
			<path fill="#FFFFFF" d="M785.58,152.71v16.91h103.67l-67.42-94.98c-2.97-4.25-7.42-6.71-12.27-6.71c-4.85,0-9.3,2.45-12.27,6.71
				l-67.42,94.98h24.07l55.62-78.77l43.58,61.72h-67.56V152.71z"/>
			<polygon fill="#FFFFFF" points="455.95,69.22 428.37,69.22 383.29,106.55 338.21,69.22 310.63,69.22 369.47,118 307.15,169.61 
				334.83,169.61 383.29,129.45 431.75,169.61 459.43,169.61 397.11,118 			"/>
		</g>
	</g>
	<g>
		<path fill="#FFFFFF" d="M939.45,69.23h22.19c40.9,0,58.1,14.98,58.1,50.06c0,35.08-17.2,50.33-58.1,50.33h-22.19V69.23z
			 M961.77,162.27c34.94,0,50.33-12.48,50.33-42.98c0-30.37-15.39-42.71-50.47-42.71h-14.56v85.69H961.77z"/>
		<path fill="#FFFFFF" d="M1032.63,119.57c0-35.77,22.18-51.44,47.01-51.44c24.54,0,46.86,15.67,46.86,51.44
			c0,36.47-22.18,51.58-47.14,51.58C1054.53,171.15,1032.63,156.03,1032.63,119.57z M1118.87,119.57
			c0-27.45-15.11-44.09-39.24-44.09c-24.4,0-39.52,16.5-39.52,44.09c0,28.01,14.56,44.23,39.24,44.23
			C1104.03,163.8,1118.87,147.57,1118.87,119.57z"/>
		<path fill="#FFFFFF" d="M1139.39,119.7c0-35.64,22.74-51.72,46.31-51.72c17.33,0,36.19,8.46,42.98,32.17l-7.35,1.8
			c-4.99-16.92-18.16-26.62-35.64-26.62c-23.3,0-38.69,17.33-38.69,44.37c0,27.59,14.84,44.23,38.69,44.23
			c17.89,0,31.06-9.98,35.77-27.73l7.49,1.8c-6.52,24.54-25.65,33.28-43.26,33.28C1162.13,171.29,1139.39,156.31,1139.39,119.7z"/>
		<path fill="#FFFFFF" d="M1239.64,147.57l6.93-2.22c5.55,11.92,18.86,18.72,35.36,18.72c17.75,0,30.23-8.32,30.23-20.94
			c0-30.92-68.5-10.4-68.5-48.81c0-15.53,15.11-26.48,34.8-26.48c19.13,0,33.28,7.35,39.79,21.77l-6.93,2.08
			c-5.54-11.37-16.91-16.78-32.72-16.78c-15.95,0-27.45,7.63-27.45,19.41c0,31.34,68.36,9.85,68.36,48.95
			c0,16.64-15.67,27.73-37.44,27.73C1261.97,171.01,1246.02,162.55,1239.64,147.57z"/>
	</g>
</g>
</svg>
